<svg width="120" height="120" viewBox="0 0 120 120" fill="none" xmlns="http://www.w3.org/2000/svg">
<path fill-rule="evenodd" clip-rule="evenodd" d="M91.4062 0C108.75 0 120 11.25 120 28.5938V91.4062C120 108.75 108.75 120 91.4062 120H28.5938C11.25 120 0 108.75 0 91.4062V28.5938C0 11.25 11.25 0 28.5938 0H91.4062Z" fill="#212224"/>
<mask id="mask0_18:43" style="mask-type:alpha" maskUnits="userSpaceOnUse" x="0" y="0" width="120" height="120">
<path fill-rule="evenodd" clip-rule="evenodd" d="M91.4062 0C108.75 0 120 11.25 120 28.5938V91.4062C120 108.75 108.75 120 91.4062 120H28.5938C11.25 120 0 108.75 0 91.4062V28.5938C0 11.25 11.25 0 28.5938 0H91.4062Z" fill="white"/>
</mask>
<g mask="url(#mask0_18:43)">
<path d="M37.5 0.5V119.5" stroke="#48494A" stroke-linecap="square"/>
<path d="M14.5 0.5V119.5" stroke="#48494A" stroke-linecap="square"/>
<path d="M82.5 0.5V119.5" stroke="#00AFFF" stroke-linecap="square"/>
<path d="M105.5 0.5V119.5" stroke="#48494A" stroke-linecap="square"/>
<path d="M60.5 0.5V119.5" stroke="#48494A" stroke-linecap="square"/>
<path d="M0 69.127C0 69.127 6.384 69.285 12.618 72.848C12.618 72.848 16.551 74.406 20.41 72.254C24.27 70.102 28.553 63.641 28.553 63.641C28.553 63.641 29.965 60.87 32.03 62.772L35.398 65.543C35.398 65.543 37.68 67.716 39.201 63.587C40.723 59.458 43.493 53.482 43.493 53.482C43.493 53.482 45.0998 47.5689 45.9688 52.4049L51.751 69.183L58.868 73.393C58.868 73.393 60.879 74.779 61.585 72.932C62.291 71.084 66.638 62.612 66.638 62.612C66.638 62.612 67.724 61.142 70.604 60.327C73.483 59.512 75.548 59.404 76.091 56.904L80.818 43.322C80.818 43.322 82.393 38.758 84.947 43.322L89.293 54.405C89.293 54.405 90.053 55.981 92.498 53.536L95.867 50.982C95.867 50.982 97.334 49.298 98.475 51.743L104.464 63.352C104.464 63.352 105.767 65.594 106.601 63.091L111.868 50.003L121.72 39" stroke="#5CDB5C" stroke-width="2"/>
<path fill-rule="evenodd" clip-rule="evenodd" d="M3.65227e-05 69.127C3.65227e-05 69.127 6.38404 69.285 12.618 72.848C12.618 72.848 16.551 74.406 20.41 72.254C24.27 70.102 28.553 63.641 28.553 63.641C28.553 63.641 29.965 60.87 32.03 62.772L35.398 65.543C35.398 65.543 37.68 67.716 39.201 63.587C40.723 59.458 43.493 53.482 43.493 53.482C43.493 53.482 45.0999 47.5689 45.9689 52.4049L51.751 69.183L58.868 73.393C58.868 73.393 60.879 74.779 61.585 72.932C62.291 71.084 66.638 62.612 66.638 62.612C66.638 62.612 67.724 61.142 70.604 60.327C73.483 59.512 75.548 59.404 76.091 56.904L80.818 43.322C80.818 43.322 82.393 38.758 84.947 43.322L89.293 54.405C89.293 54.405 90.053 55.981 92.498 53.536L95.867 50.982C95.867 50.982 97.334 49.298 98.475 51.743L104.464 63.352C104.464 63.352 105.767 65.594 106.601 63.091L111.868 50.003L121.72 39L121.568 123.254L-0.0922852 123.208L3.65227e-05 69.127Z" fill="url(#paint0_linear_18:43)"/>
<path d="M82.5 42.5C85.2614 42.5 87.5 40.2614 87.5 37.5C87.5 34.7386 85.2614 32.5 82.5 32.5C79.7386 32.5 77.5 34.7386 77.5 37.5C77.5 40.2614 79.7386 42.5 82.5 42.5Z" fill="#00AFFF" stroke="#212224"/>
</g>
<defs>
<linearGradient id="paint0_linear_18:43" x1="-0.0922852" y1="39" x2="-0.0922852" y2="123.254" gradientUnits="userSpaceOnUse">
<stop stop-color="#111213" stop-opacity="0.43"/>
<stop offset="1" stop-color="#111213" stop-opacity="0"/>
</linearGradient>
</defs>
</svg>
